<?xml version="1.0" encoding="utf-8"?>
<!-- Generator: Adobe Illustrator 16.0.0, SVG Export Plug-In . SVG Version: 6.00 Build 0)  -->
<!DOCTYPE svg PUBLIC "-//W3C//DTD SVG 1.1//EN" "http://www.w3.org/Graphics/SVG/1.1/DTD/svg11.dtd">
<svg version="1.1" id="logo-8" xmlns="http://www.w3.org/2000/svg" xmlns:xlink="http://www.w3.org/1999/xlink" x="0px" y="0px"
	 width="26.623px" height="26.667px" viewBox="2.989 -46.517 26.623 26.667" enable-background="new 2.989 -46.517 26.623 26.667"
	 xml:space="preserve">
<g>
	<path fill="#FFFFFF" d="M29.39-33.477c-0.21-0.581-0.564-1.099-1.029-1.506c-0.465-0.407-1.025-0.691-1.628-0.824
		c-0.604-0.133-1.231-0.112-1.824,0.062c-0.593,0.173-1.133,0.494-1.569,0.932h-0.003c-0.379,0.381-0.669,0.841-0.85,1.348
		c-0.181,0.506-0.248,1.046-0.196,1.581l-0.018-0.018c0.053,0.63-0.032,1.264-0.249,1.857c-0.217,0.593-0.562,1.132-1.008,1.579
		c-0.447,0.447-0.986,0.791-1.58,1.008c-0.593,0.218-1.229,0.303-1.857,0.25l0.019,0.018c-0.753-0.07-1.511,0.094-2.167,0.469
		c-0.657,0.377-1.183,0.945-1.503,1.631c-0.322,0.685-0.425,1.452-0.294,2.197c0.132,0.745,0.488,1.432,1.023,1.967
		c0.535,0.535,1.222,0.892,1.968,1.021c0.746,0.131,1.514,0.027,2.197-0.295c0.685-0.322,1.253-0.848,1.628-1.505
		s0.539-1.414,0.468-2.167l0.02,0.018c-0.054-0.63,0.032-1.264,0.249-1.857c0.217-0.594,0.561-1.133,1.008-1.58
		c0.447-0.446,0.986-0.791,1.58-1.008c0.594-0.217,1.228-0.302,1.856-0.249l-0.019-0.018c0.616,0.056,1.235-0.046,1.801-0.294
		c0.566-0.248,1.061-0.635,1.438-1.124c0.377-0.489,0.624-1.066,0.718-1.677C29.663-32.272,29.602-32.896,29.39-33.477z"/>
	<path fill="#FFFFFF" d="M15.961-29.549l-0.019-0.018c0.535,0.054,1.076-0.012,1.583-0.192c0.507-0.18,0.967-0.472,1.348-0.852
		c0.38-0.381,0.672-0.841,0.854-1.348c0.181-0.507,0.248-1.047,0.193-1.583l0.02,0.018c-0.053-0.63,0.032-1.264,0.249-1.857
		c0.217-0.594,0.561-1.133,1.008-1.58c0.447-0.447,0.986-0.791,1.58-1.008c0.594-0.217,1.228-0.302,1.856-0.249l-0.019-0.018
		c0.754,0.07,1.511-0.093,2.168-0.468s1.183-0.944,1.504-1.629c0.322-0.685,0.425-1.452,0.295-2.198
		c-0.13-0.746-0.486-1.433-1.021-1.968s-1.223-0.893-1.969-1.022c-0.745-0.13-1.513-0.027-2.197,0.295
		c-0.686,0.322-1.254,0.847-1.629,1.504c-0.375,0.657-0.539,1.414-0.469,2.167l-0.018-0.019c0.053,0.63-0.031,1.264-0.249,1.857
		c-0.217,0.594-0.561,1.133-1.008,1.58c-0.447,0.447-0.986,0.791-1.58,1.008s-1.229,0.302-1.857,0.249l0.019,0.019
		c-0.535-0.054-1.076,0.012-1.583,0.192c-0.507,0.18-0.967,0.471-1.349,0.852c-0.381,0.38-0.672,0.841-0.853,1.347
		c-0.181,0.507-0.247,1.047-0.193,1.583l-0.018-0.019c0.053,0.63-0.032,1.264-0.249,1.856c-0.217,0.594-0.563,1.133-1.008,1.58
		c-0.446,0.447-0.986,0.791-1.58,1.008s-1.229,0.303-1.857,0.25L7.93-28.19c-0.754-0.07-1.512,0.092-2.168,0.468
		c-0.657,0.375-1.184,0.944-1.505,1.629c-0.321,0.685-0.425,1.452-0.295,2.198c0.131,0.745,0.487,1.433,1.022,1.968
		c0.535,0.535,1.222,0.892,1.968,1.021c0.746,0.13,1.513,0.027,2.198-0.295c0.685-0.322,1.254-0.848,1.629-1.505
		s0.539-1.414,0.468-2.167l0.02,0.018c-0.054-0.63,0.031-1.264,0.249-1.857c0.217-0.594,0.561-1.133,1.008-1.58
		c0.447-0.446,0.986-0.791,1.58-1.008C14.698-29.516,15.331-29.602,15.961-29.549z"/>
	<path fill="#FFFFFF" d="M5.869-30.562c0.604,0.133,1.231,0.111,1.824-0.063c0.593-0.173,1.132-0.494,1.568-0.932H9.259
		c0.38-0.381,0.67-0.842,0.851-1.348c0.181-0.506,0.247-1.046,0.195-1.581l0.019,0.018c-0.053-0.63,0.032-1.264,0.249-1.857
		c0.217-0.593,0.562-1.133,1.009-1.58c0.447-0.447,0.986-0.791,1.581-1.008c0.594-0.217,1.229-0.302,1.858-0.249L15-39.179
		c0.753,0.071,1.511-0.093,2.167-0.468c0.657-0.375,1.183-0.944,1.504-1.629c0.322-0.685,0.426-1.452,0.294-2.197
		c-0.13-0.745-0.486-1.432-1.021-1.967c-0.535-0.535-1.222-0.892-1.967-1.022c-0.746-0.13-1.514-0.027-2.197,0.295
		c-0.685,0.321-1.253,0.847-1.629,1.504c-0.375,0.657-0.539,1.413-0.468,2.167l-0.019-0.018c0.053,0.63-0.032,1.264-0.249,1.857
		c-0.217,0.593-0.561,1.133-1.008,1.58c-0.447,0.447-0.986,0.791-1.58,1.008C8.234-37.853,7.6-37.768,6.97-37.82l0.018,0.018
		c-0.615-0.055-1.235,0.046-1.801,0.294c-0.566,0.248-1.061,0.635-1.438,1.125c-0.376,0.49-0.624,1.067-0.718,1.677
		c-0.094,0.611-0.033,1.235,0.178,1.816c0.211,0.581,0.565,1.099,1.03,1.505C4.706-30.978,5.266-30.694,5.869-30.562z"/>
</g>
</svg>
